<?xml version="1.0" encoding="UTF-8"?>
<svg width="34px" height="26px" viewBox="0 0 34 26" version="1.1" xmlns="http://www.w3.org/2000/svg" xmlns:xlink="http://www.w3.org/1999/xlink">
    <!-- Generator: Sketch 53.2 (72643) - https://sketchapp.com -->
    <title>Group 321</title>
    <desc>Created with Sketch.</desc>
    <g id="Page-1" stroke="none" stroke-width="1" fill="none" fill-rule="evenodd" stroke-linecap="round" stroke-linejoin="round">
        <g id="Artboard-Copy-21" transform="translate(-50.000000, -3961.000000)" stroke="#000000" stroke-width="1.5">
            <g id="Group-2" transform="translate(51.000000, 3962.000000)">
                <g id="Group-321">
                    <path d="M29,3 L17.9927238,12.4633078 C17.1595756,13.1788974 15.8404244,13.1788974 15.0072762,12.4633078 L4,3" id="Stroke-4607"></path>
                    <path d="M22,14 L29,20" id="Stroke-4608"></path>
                    <path d="M11,14 L4,20" id="Stroke-4609"></path>
                    <path d="M0,3.23435294 L0,20.7698824 C0,22.5557647 1.42608696,24 3.25843478,24 L28.7304348,24 C30.5627826,24 32,22.5557647 32,20.7698824 L32,3.23435294 C32,1.44847059 30.5627826,0 28.7304348,0 L3.25843478,0 C1.42608696,0 0,1.44847059 0,3.23435294 Z" id="Stroke-4610"></path>
                </g>
            </g>
        </g>
    </g>
</svg>