<?xml version="1.0" encoding="UTF-8"?>
<svg width="32px" height="32px" viewBox="0 0 32 32" version="1.1" xmlns="http://www.w3.org/2000/svg" xmlns:xlink="http://www.w3.org/1999/xlink">
    <!-- Generator: Sketch 53.2 (72643) - https://sketchapp.com -->
    <title>Group 296</title>
    <desc>Created with Sketch.</desc>
    <g id="Page-1" stroke="none" stroke-width="1" fill="none" fill-rule="evenodd" stroke-linecap="round" stroke-linejoin="round">
        <g id="Artboard-Copy-21" transform="translate(-51.000000, -4005.000000)" stroke="#000000" stroke-width="1.5">
            <g id="Group" transform="translate(52.000000, 4006.000000)">
                <g id="Group-296">
                    <path d="M19.4502971,18.5889685 C19.2090982,18.3377307 18.8181439,18.3322985 18.5650176,18.571314 C18.5650176,18.571314 16.7533752,20.3883747 16.634101,20.5024502 C16.6036199,20.5336852 16.5704881,20.5567719 16.5333806,20.5757845 C14.6488485,21.5535751 7.8488946,14.0924902 9.14633269,12.6896324 L11.0852009,10.7449157 C11.3356766,10.4909618 11.3370019,10.0767589 11.0931525,9.82416298 L4.74909103,3.1955581 C4.63246738,3.07197625 4.47078459,3.00135804 4.30247547,3 C4.13416634,3 3.97248355,3.06654408 3.8518841,3.18740985 C0.675214936,6.38424162 -4.41779281,9.5973699 7.48046989,22.032964 C19.2223509,34.302877 22.5885335,29.6529398 25.8288155,26.0826464 C26.0620628,25.8259764 26.0554365,25.42807 25.8182134,25.1809063 L19.4502971,18.5889685 Z" id="Stroke-4475"></path>
                    <path d="M24.9951464,14 C25.1611037,8.94280804 21.0494779,4.83890513 16,5.00486233" id="Stroke-4476"></path>
                    <path d="M29.9966127,14 C30.1678292,6.18200912 23.8260775,-0.167833452 16,0.00338310976" id="Stroke-4477"></path>
                    <path d="M16,9.01048274 C18.8389658,8.82353163 21.175227,11.1624977 20.9896556,14" id="Stroke-4478"></path>
                </g>
            </g>
        </g>
    </g>
</svg>